{
	"asset":{
		"generator":"Khronos glTF Blender I/O v3.5.30",
		"version":"2.0"
	},
	"extensionsUsed":[
		"KHR_materials_specular",
		"KHR_materials_ior",
		"KHR_materials_emissive_strength"
	],
	"scene":0,
	"scenes":[
		{
			"name":"Scene",
			"nodes":[
				0,
				1,
				2,
				3,
				4
			]
		}
	],
	"nodes":[
		{
			"mesh":0,
			"name":"Blackhole",
			"scale":[
				0.7476020455360413,
				0.7476020455360413,
				0.7476020455360413
			]
		},
		{
			"mesh":1,
			"name":"accretion disk",
			"scale":[
				0.9102844595909119,
				0.9102844595909119,
				0.9102844595909119
			]
		},
		{
			"mesh":2,
			"name":"Einstein ring"
		},
		{
			"mesh":3,
			"name":"Einstein ring.001",
			"scale":[
				1.0478582382202148,
				1.0478582382202148,
				1.0478582382202148
			]
		},
		{
			"mesh":4,
			"name":"glowing",
			"scale":[
				1.065138816833496,
				1.065138816833496,
				1.065138816833496
			]
		}
	],
	"materials":[
		{
			"extensions":{
				"KHR_materials_specular":{
					"specularColorFactor":[
						0,
						0,
						0
					]
				},
				"KHR_materials_ior":{
					"ior":1.4500000476837158
				}
			},
			"name":"black",
			"pbrMetallicRoughness":{
				"baseColorFactor":[
					0,
					0,
					0,
					1
				],
				"metallicFactor":0
			}
		},
		{
			"emissiveFactor":[
				1,
				1,
				1
			],
			"name":"accretion disk",
			"pbrMetallicRoughness":{
				"baseColorFactor":[
					0,
					0,
					0,
					1
				]
			}
		},
		{
			"emissiveFactor":[
				1,
				1,
				1
			],
			"extensions":{
				"KHR_materials_emissive_strength":{
					"emissiveStrength":100
				},
				"KHR_materials_specular":{
					"specularColorFactor":[
						0,
						0,
						0
					]
				},
				"KHR_materials_ior":{
					"ior":1.4500000476837158
				}
			},
			"name":"Einstein ring",
			"pbrMetallicRoughness":{
				"baseColorFactor":[
					0.800000011920929,
					0.800000011920929,
					0.800000011920929,
					1
				],
				"metallicFactor":0
			}
		},
		{
			"alphaMode":"BLEND",
			"emissiveFactor":[
				1,
				1,
				1
			],
			"name":"glowing",
			"pbrMetallicRoughness":{
				"baseColorFactor":[
					0,
					0,
					0,
					1
				]
			}
		}
	],
	"meshes":[
		{
			"name":"Roundcube",
			"primitives":[
				{
					"attributes":{
						"POSITION":0,
						"TEXCOORD_0":1,
						"NORMAL":2
					},
					"indices":3,
					"material":0
				}
			]
		},
		{
			"name":"Roundcube.001",
			"primitives":[
				{
					"attributes":{
						"POSITION":4,
						"TEXCOORD_0":5,
						"NORMAL":6
					},
					"indices":7,
					"material":1
				}
			]
		},
		{
			"name":"\u7403\u4f53",
			"primitives":[
				{
					"attributes":{
						"POSITION":8,
						"TEXCOORD_0":9,
						"NORMAL":10
					},
					"indices":11,
					"material":2
				}
			]
		},
		{
			"name":"\u7403\u4f53.001",
			"primitives":[
				{
					"attributes":{
						"POSITION":12,
						"TEXCOORD_0":13,
						"NORMAL":14
					},
					"indices":11,
					"material":0
				}
			]
		},
		{
			"name":"Roundcube.002",
			"primitives":[
				{
					"attributes":{
						"POSITION":15,
						"TEXCOORD_0":16,
						"NORMAL":17
					},
					"indices":7,
					"material":3
				}
			]
		}
	],
	"accessors":[
		{
			"bufferView":0,
			"componentType":5126,
			"count":13826,
			"max":[
				1,
				1,
				1
			],
			"min":[
				-1,
				-1,
				-1
			],
			"type":"VEC3"
		},
		{
			"bufferView":1,
			"componentType":5126,
			"count":13826,
			"type":"VEC2"
		},
		{
			"bufferView":2,
			"componentType":5126,
			"count":13826,
			"type":"VEC3"
		},
		{
			"bufferView":3,
			"componentType":5123,
			"count":82944,
			"type":"SCALAR"
		},
		{
			"bufferView":4,
			"componentType":5126,
			"count":46651,
			"max":[
				2.7591586112976074,
				1.1299998760223389,
				2.759159803390503
			],
			"min":[
				-2.759159564971924,
				-1.1299998760223389,
				-2.759160280227661
			],
			"type":"VEC3"
		},
		{
			"bufferView":5,
			"componentType":5126,
			"count":46651,
			"type":"VEC2"
		},
		{
			"bufferView":6,
			"componentType":5126,
			"count":46651,
			"type":"VEC3"
		},
		{
			"bufferView":7,
			"componentType":5123,
			"count":276048,
			"type":"SCALAR"
		},
		{
			"bufferView":8,
			"componentType":5126,
			"count":5327,
			"max":[
				1.1622748374938965,
				0.7799999713897705,
				1.1622748374938965
			],
			"min":[
				-1.1622751951217651,
				-0.7799999713897705,
				-1.162275791168213
			],
			"type":"VEC3"
		},
		{
			"bufferView":9,
			"componentType":5126,
			"count":5327,
			"type":"VEC2"
		},
		{
			"bufferView":10,
			"componentType":5126,
			"count":5327,
			"type":"VEC3"
		},
		{
			"bufferView":11,
			"componentType":5123,
			"count":30672,
			"type":"SCALAR"
		},
		{
			"bufferView":12,
			"componentType":5126,
			"count":5327,
			"max":[
				1.162274718284607,
				0.7799999713897705,
				1.162274956703186
			],
			"min":[
				-1.1622751951217651,
				-0.7799999713897705,
				-1.162275791168213
			],
			"type":"VEC3"
		},
		{
			"bufferView":13,
			"componentType":5126,
			"count":5327,
			"type":"VEC2"
		},
		{
			"bufferView":14,
			"componentType":5126,
			"count":5327,
			"type":"VEC3"
		},
		{
			"bufferView":15,
			"componentType":5126,
			"count":46651,
			"max":[
				3.0406439304351807,
				1.2452807426452637,
				3.040645122528076
			],
			"min":[
				-3.040644884109497,
				-1.2452807426452637,
				-3.0406455993652344
			],
			"type":"VEC3"
		},
		{
			"bufferView":16,
			"componentType":5126,
			"count":46651,
			"type":"VEC2"
		},
		{
			"bufferView":17,
			"componentType":5126,
			"count":46651,
			"type":"VEC3"
		}
	],
	"bufferViews":[
		{
			"buffer":0,
			"byteLength":165912,
			"byteOffset":0,
			"target":34962
		},
		{
			"buffer":0,
			"byteLength":110608,
			"byteOffset":165912,
			"target":34962
		},
		{
			"buffer":0,
			"byteLength":165912,
			"byteOffset":276520,
			"target":34962
		},
		{
			"buffer":0,
			"byteLength":165888,
			"byteOffset":442432,
			"target":34963
		},
		{
			"buffer":0,
			"byteLength":559812,
			"byteOffset":608320,
			"target":34962
		},
		{
			"buffer":0,
			"byteLength":373208,
			"byteOffset":1168132,
			"target":34962
		},
		{
			"buffer":0,
			"byteLength":559812,
			"byteOffset":1541340,
			"target":34962
		},
		{
			"buffer":0,
			"byteLength":552096,
			"byteOffset":2101152,
			"target":34963
		},
		{
			"buffer":0,
			"byteLength":63924,
			"byteOffset":2653248,
			"target":34962
		},
		{
			"buffer":0,
			"byteLength":42616,
			"byteOffset":2717172,
			"target":34962
		},
		{
			"buffer":0,
			"byteLength":63924,
			"byteOffset":2759788,
			"target":34962
		},
		{
			"buffer":0,
			"byteLength":61344,
			"byteOffset":2823712,
			"target":34963
		},
		{
			"buffer":0,
			"byteLength":63924,
			"byteOffset":2885056,
			"target":34962
		},
		{
			"buffer":0,
			"byteLength":42616,
			"byteOffset":2948980,
			"target":34962
		},
		{
			"buffer":0,
			"byteLength":63924,
			"byteOffset":2991596,
			"target":34962
		},
		{
			"buffer":0,
			"byteLength":559812,
			"byteOffset":3055520,
			"target":34962
		},
		{
			"buffer":0,
			"byteLength":373208,
			"byteOffset":3615332,
			"target":34962
		},
		{
			"buffer":0,
			"byteLength":559812,
			"byteOffset":3988540,
			"target":34962
		}
	],
	"buffers":[
		{
			"byteLength":4548352,
			"uri":"Gargantua.bin"
		}
	]
}
