{
	"asset":{
		"generator":"Khronos glTF Blender I/O v3.5.30",
		"version":"2.0"
	},
	"extensionsUsed":[
		"KHR_materials_emissive_strength"
	],
	"scene":0,
	"scenes":[
		{
			"name":"Scene",
			"nodes":[
				0,
				1
			]
		}
	],
	"nodes":[
		{
			"mesh":0,
			"name":"Circle",
			"scale":[
				1.1272104978561401,
				1.1272104978561401,
				1.1272104978561401
			]
		},
		{
			"mesh":1,
			"name":"Sphere",
			"scale":[
				3.032362461090088,
				3.032362461090088,
				3.032362461090088
			]
		}
	],
	"materials":[
		{
			"doubleSided":true,
			"emissiveFactor":[
				1,
				0.2601161599159241,
				0.0841376781463623
			],
			"extensions":{
				"KHR_materials_emissive_strength":{
					"emissiveStrength":10
				}
			},
			"name":"Material",
			"pbrMetallicRoughness":{
				"baseColorFactor":[
					0,
					0,
					0,
					1
				]
			}
		},
		{
			"doubleSided":true,
			"name":"Material.001",
			"pbrMetallicRoughness":{}
		}
	],
	"meshes":[
		{
			"name":"Circle",
			"primitives":[
				{
					"attributes":{
						"POSITION":0,
						"TEXCOORD_0":1,
						"NORMAL":2
					},
					"indices":3,
					"material":0
				}
			]
		},
		{
			"name":"Sphere",
			"primitives":[
				{
					"attributes":{
						"POSITION":4,
						"TEXCOORD_0":5,
						"NORMAL":6
					},
					"indices":7,
					"material":1
				}
			]
		}
	],
	"accessors":[
		{
			"bufferView":0,
			"componentType":5126,
			"count":64,
			"max":[
				5.943296909332275,
				0,
				5.943296909332275
			],
			"min":[
				-5.943296909332275,
				0,
				-5.943296909332275
			],
			"type":"VEC3"
		},
		{
			"bufferView":1,
			"componentType":5126,
			"count":64,
			"type":"VEC2"
		},
		{
			"bufferView":2,
			"componentType":5126,
			"count":64,
			"type":"VEC3"
		},
		{
			"bufferView":3,
			"componentType":5123,
			"count":192,
			"type":"SCALAR"
		},
		{
			"bufferView":4,
			"componentType":5126,
			"count":559,
			"max":[
				0.9999997019767761,
				1,
				0.9999994039535522
			],
			"min":[
				-0.9999990463256836,
				-1,
				-0.9999987483024597
			],
			"type":"VEC3"
		},
		{
			"bufferView":5,
			"componentType":5126,
			"count":559,
			"type":"VEC2"
		},
		{
			"bufferView":6,
			"componentType":5126,
			"count":559,
			"type":"VEC3"
		},
		{
			"bufferView":7,
			"componentType":5123,
			"count":2880,
			"type":"SCALAR"
		}
	],
	"bufferViews":[
		{
			"buffer":0,
			"byteLength":768,
			"byteOffset":0,
			"target":34962
		},
		{
			"buffer":0,
			"byteLength":512,
			"byteOffset":768,
			"target":34962
		},
		{
			"buffer":0,
			"byteLength":768,
			"byteOffset":1280,
			"target":34962
		},
		{
			"buffer":0,
			"byteLength":384,
			"byteOffset":2048,
			"target":34963
		},
		{
			"buffer":0,
			"byteLength":6708,
			"byteOffset":2432,
			"target":34962
		},
		{
			"buffer":0,
			"byteLength":4472,
			"byteOffset":9140,
			"target":34962
		},
		{
			"buffer":0,
			"byteLength":6708,
			"byteOffset":13612,
			"target":34962
		},
		{
			"buffer":0,
			"byteLength":5760,
			"byteOffset":20320,
			"target":34963
		}
	],
	"buffers":[
		{
			"byteLength":26080,
			"uri":"scene.bin"
		}
	]
}
